<svg width="37" height="36" viewBox="0 0 37 36" fill="none" xmlns="http://www.w3.org/2000/svg">
<path d="M22.4744 16.5956C21.7064 17.3744 21.7064 18.6256 22.4744 19.4044L29.4624 26.4899C30.0132 27.0484 30.0087 27.9471 29.4523 28.5C28.8938 29.0549 27.9935 29.0595 27.4295 28.5102L20.2808 21.5488C19.5042 20.7926 18.2667 20.7926 17.4901 21.5488L10.3414 28.5102C9.77736 29.0595 8.87708 29.0549 8.31862 28.5C7.76221 27.9471 7.75767 27.0484 8.30847 26.4899L15.2965 19.4044C16.0645 18.6256 16.0645 17.3744 15.2965 16.5956L8.30847 9.51011C7.75767 8.95163 7.76221 8.05289 8.31862 7.5C8.87708 6.94508 9.77736 6.94053 10.3414 7.48978L17.4901 14.4512C18.2667 15.2074 19.5042 15.2074 20.2808 14.4512L27.4295 7.48978C27.9935 6.94053 28.8938 6.94508 29.4523 7.5C30.0087 8.05289 30.0132 8.95163 29.4624 9.51011L22.4744 16.5956Z" fill="#292F36"/>
</svg>
