<svg width="140" height="45" viewBox="0 0 140 45" fill="none" xmlns="http://www.w3.org/2000/svg">
<g clip-path="url(#clip0_274_2)">
<mask id="mask0_274_2" style="mask-type:luminance" maskUnits="userSpaceOnUse" x="0" y="0" width="43" height="44">
<path d="M42.7876 0.392273H0V43.1799H42.7876V0.392273Z" fill="white"/>
</mask>
<g mask="url(#mask0_274_2)">
<path d="M32.857 -21.0361L41.6791 -5.21299L5.61197 14.8926C4.50013 15.5227 4.10092 16.9282 4.71458 18.0466C8.64726 25.1004 38.5713 -10.7887 53.8962 16.7039C59.3564 26.5752 55.8196 39.0034 45.978 44.5131L9.93396 64.6088L1.11182 48.7856L37.1559 28.6933C38.2809 28.0664 38.69 26.6544 38.0731 25.526C34.1767 18.5382 4.15701 54.2459 -11.1085 26.8655C-16.5654 17.0074 -13.0386 4.58575 -3.20687 -0.930574L32.857 -21.0361Z" fill="#EEC643"/>
</g>
<path d="M55.2029 9.6103C53.4147 9.6103 51.9993 8.68652 51.9993 6.78947V6.50243H54.256C54.256 7.0798 54.5199 7.71325 55.1798 7.71325C55.6482 7.71325 56.0442 7.34044 56.0442 6.86205C56.0442 6.28469 55.5625 6.09333 55.0973 5.88878C54.8333 5.77001 54.5694 5.66113 54.3055 5.55226C53.154 5.07057 52.1346 4.40083 52.1346 3.00856C52.1346 1.35235 53.7314 0.392273 55.2424 0.392273C56.1068 0.392273 57.0801 0.715597 57.6443 1.39854C58.0996 1.9627 58.2084 2.45429 58.2315 3.15042H55.9881C55.9155 2.65884 55.7472 2.28603 55.1732 2.28603C54.7773 2.28603 54.3945 2.56316 54.3945 2.98216C54.3945 3.11413 54.4077 3.2461 54.477 3.35497C54.6915 3.71459 55.8561 4.16988 56.2289 4.33814C57.4067 4.87922 58.3041 5.48957 58.3041 6.88184C58.3041 8.74261 56.9613 9.607 55.2095 9.607L55.2029 9.6103Z" fill="#fff"/>
<path d="M68.271 9.62023C67.5749 9.62023 66.6874 9.45197 66.1826 8.92409C65.3908 9.41568 64.6122 9.62023 63.6851 9.62023C61.1414 9.62023 58.9936 7.62749 58.9936 5.04749C58.9936 2.46749 61.0589 0.392273 63.662 0.392273C66.2651 0.392273 68.403 2.33552 68.403 4.92872C68.403 5.90199 68.2116 6.69381 67.6705 7.49882C67.9576 7.76276 68.4492 7.85844 68.8352 7.79905V9.60043C68.6438 9.61363 68.4624 9.62353 68.271 9.62353V9.62023ZM63.6752 2.38501C62.3324 2.38501 61.4911 3.36818 61.2733 4.62849C61.7055 4.44703 62.052 4.32826 62.5336 4.32826C63.8665 4.32826 65.0312 5.21575 65.8329 6.19892C66.0605 5.80302 66.1331 5.34772 66.1331 4.89243C66.1331 3.46386 65.1136 2.38501 63.6719 2.38501H63.6752ZM62.2961 5.98447C62.0091 5.98447 61.7814 6.03396 61.5043 6.12964C61.8639 6.98084 62.7151 7.63079 63.6653 7.63079C64.0249 7.63079 64.3845 7.5714 64.6979 7.40314C64.0513 6.62123 63.3881 5.98777 62.2961 5.98777V5.98447Z" fill="#fff"/>
<path d="M75.6777 8.65027C75.0046 9.33321 74.1402 9.61035 73.1933 9.61035C72.2465 9.61035 71.2864 9.34641 70.6364 8.66347C69.8314 7.81226 69.7489 7.05344 69.7489 5.9284V0.560532H72.0188V5.9251C72.0188 6.73011 72.1508 7.61761 73.1702 7.61761C74.1897 7.61761 74.2986 6.7664 74.2986 5.9251V0.560532H76.5684V5.9251C76.5684 6.98086 76.4497 7.88155 75.681 8.65027H75.6777Z" fill="#fff"/>
<path d="M83.3912 9.44204L82.959 8.15865H79.8743L79.4058 9.44204H76.9709L80.5341 0.560532H82.3223L85.8491 9.44204H83.3879H83.3912ZM81.448 3.31868H81.4117L80.5011 6.35397H82.3619L81.4513 3.31868H81.448Z" fill="#fff"/>
<path d="M91.0126 9.44209L88.9604 6.57505H88.9373V9.44209H86.7664V0.560532H89.5741C90.5111 0.560532 91.5437 0.583626 92.3092 1.19729C93.0416 1.78455 93.4012 2.69844 93.4012 3.62223C93.4012 4.99141 92.5962 6.18904 91.194 6.41999L93.6058 9.44539H91.0126V9.44209ZM89.7654 2.55327H88.9373V5.02441H89.7424C90.5936 5.02441 91.2303 4.66479 91.2303 3.7509C91.2303 2.83701 90.5474 2.54997 89.7654 2.54997V2.55327Z" fill="#fff"/>
<path d="M94.602 9.44204V0.560532H99.5343V2.55326H96.7729V3.93234H99.4486V5.92507H96.7729V7.44931H99.5343V9.44204H94.602Z" fill="#fff"/>
<path d="M103.111 2.55326V4.06431H105.691V6.05704H103.111V9.44204H100.94V0.560532H105.79V2.55326H103.114H103.111Z" fill="#fff"/>
<path d="M111.26 9.44209L109.208 6.57505H109.185V9.44209H107.014V0.560532H109.821C110.758 0.560532 111.791 0.583626 112.556 1.19729C113.289 1.78455 113.649 2.69844 113.649 3.62223C113.649 4.99141 112.843 6.18904 111.441 6.41999L113.853 9.44539H111.26V9.44209ZM110.009 2.55327H109.181V5.02441H109.986C110.838 5.02441 111.474 4.66479 111.474 3.7509C111.474 2.83701 110.791 2.54997 110.009 2.54997V2.55327Z" fill="#fff"/>
<path d="M120.57 9.44204L120.138 8.15865H117.053L116.585 9.44204H114.15L117.713 0.560532H119.501L123.032 9.44204H120.57ZM118.627 3.31868H118.591L117.68 6.35397H119.541L118.63 3.31868H118.627Z" fill="#fff"/>
<path d="M130.63 9.44209L130.702 2.79412L130.679 2.77102L128.782 9.44539H127.281L125.384 2.77102L125.361 2.79412L125.433 9.44209H123.345V0.560532H126.261L128.027 6.40679H128.05L129.788 0.560532H132.718V9.44209H130.63Z" fill="#fff"/>
<path d="M133.724 9.44204V0.560532H138.657V2.55326H135.895V3.93234H138.571V5.92507H135.895V7.44931H138.657V9.44204H133.724Z" fill="#fff"/>
<path d="M57.3637 17.7495C56.6907 18.2048 55.8626 18.2642 55.0708 18.2642H53.4871V21.8406H52.5996V12.9591H55.0708C55.8626 12.9591 56.6907 13.0185 57.3637 13.4738C58.083 13.9653 58.469 14.7473 58.469 15.6084C58.469 16.4695 58.0863 17.2514 57.3637 17.7463V17.7495ZM56.5455 13.9917C56.0407 13.7509 55.5722 13.7641 55.0213 13.7641H53.4838V17.4592H55.0213C55.5722 17.4592 56.0407 17.4724 56.5455 17.2316C57.2054 16.9181 57.5782 16.3441 57.5782 15.6117C57.5782 14.8792 57.2054 14.3052 56.5455 13.9917Z" fill="#fff"/>
<path d="M59.7161 21.8406V12.9591H60.6036V21.8406H59.7161Z" fill="#fff"/>
<path d="M66.6741 21.999C64.1304 21.999 62.0288 19.9832 62.0288 17.413C62.0288 14.8429 64.0809 12.8172 66.6609 12.8172C68.0037 12.8172 69.2772 13.3946 70.1647 14.4008C70.3924 14.6516 70.5969 14.9287 70.7289 15.2421H69.7325C69.0496 14.2227 67.8717 13.6222 66.6477 13.6222C64.6088 13.6222 62.9163 15.4104 62.9163 17.4262C62.9163 19.4421 64.655 21.194 66.6609 21.194C67.9443 21.194 69.0133 20.5209 69.7688 19.5147H70.7652C69.9503 21.0158 68.3897 21.999 66.6708 21.999H66.6741Z" fill="#fff"/>
<path d="M74.2722 13.7641V21.8406H73.3847V13.7641H71.3458V12.9591H76.3013V13.7641H74.2722Z" fill="#fff"/>
<path d="M82.9954 20.3427C82.4906 21.4215 81.4844 21.9989 80.3066 21.9989C79.1287 21.9989 78.1225 21.4215 77.6177 20.3427C77.3669 19.8016 77.2812 19.0956 77.2812 18.4951V12.9623H78.1687V18.4951C78.1687 18.9768 78.228 19.6729 78.4689 20.1051C78.8648 20.8243 79.4883 21.1972 80.3066 21.1972C81.1248 21.1972 81.7483 20.8243 82.1442 20.1051C82.3851 19.6729 82.4445 18.9768 82.4445 18.4951V12.9623H83.3319V18.4951C83.3319 19.0956 83.2495 19.8049 82.9954 20.3427Z" fill="#fff"/>
<path d="M88.4688 18.5281L90.9762 21.8406H89.8611L86.8489 17.8188C87.3998 17.8188 88.2181 17.8551 88.7558 17.6868C89.6202 17.4229 90.2207 16.7268 90.2207 15.803C90.2207 15.1299 89.8479 14.4239 89.2474 14.0973C88.6965 13.797 88.1422 13.7607 87.5186 13.7607H85.9713V21.8373H85.0838V12.9557H87.3405C88.0135 12.9557 88.901 12.992 89.5246 13.2922C90.5209 13.7739 91.1082 14.7208 91.1082 15.8261C91.1082 17.3371 89.9568 18.4292 88.4688 18.5248V18.5281Z" fill="#fff"/>
<path d="M92.3687 21.8406V12.9591H97.2285V13.7641H93.2562V16.9578H97.0965V17.7628H93.2562V21.0389H97.2285V21.8439H92.3687V21.8406Z" fill="#fff"/>
</g>
<defs>
<clipPath id="clip0_274_2">
<rect width="139.257" height="44.18" fill="white"/>
</clipPath>
</defs>
</svg>
