<svg width="140" height="45" viewBox="0 0 140 45" fill="none" xmlns="http://www.w3.org/2000/svg">
<g clip-path="url(#clip0_274_521)">
<mask id="mask0_274_521" style="mask-type:luminance" maskUnits="userSpaceOnUse" x="0" y="0" width="43" height="44">
<path d="M42.7876 0.392273H0V43.1799H42.7876V0.392273Z" fill="white"/>
</mask>
<g mask="url(#mask0_274_521)">
<path d="M32.8569 -21.0361L41.679 -5.21299L5.61183 14.8926C4.49999 15.5227 4.10079 16.9282 4.71444 18.0466C8.64712 25.1004 38.5711 -10.7887 53.896 16.7039C59.3563 26.5752 55.8195 39.0034 45.9779 44.5131L9.93382 64.6088L1.11169 48.7856L37.1558 28.6933C38.2808 28.0664 38.6899 26.6544 38.0729 25.526C34.1766 18.5382 4.15687 54.2459 -11.1087 26.8655C-16.5656 17.0074 -13.0387 4.58575 -3.207 -0.930574L32.8569 -21.0361Z" fill="#EEC643"/>
</g>
<path d="M55.2031 9.6103C53.4149 9.6103 51.9995 8.68652 51.9995 6.78947V6.50243H54.2562C54.2562 7.0798 54.5201 7.71325 55.18 7.71325C55.6485 7.71325 56.0444 7.34044 56.0444 6.86205C56.0444 6.28469 55.5627 6.09333 55.0975 5.88878C54.8335 5.77001 54.5696 5.66113 54.3057 5.55226C53.1542 5.07057 52.1348 4.40083 52.1348 3.00856C52.1348 1.35235 53.7316 0.392273 55.2427 0.392273C56.107 0.392273 57.0803 0.715597 57.6445 1.39854C58.0998 1.9627 58.2087 2.45429 58.2318 3.15042H55.9883C55.9157 2.65884 55.7474 2.28603 55.1734 2.28603C54.7775 2.28603 54.3947 2.56316 54.3947 2.98216C54.3947 3.11413 54.4079 3.2461 54.4772 3.35497C54.6917 3.71459 55.8563 4.16988 56.2291 4.33814C57.4069 4.87922 58.3043 5.48957 58.3043 6.88184C58.3043 8.74261 56.9615 9.607 55.2097 9.607L55.2031 9.6103Z" fill="#37343A"/>
<path d="M68.2711 9.62023C67.5749 9.62023 66.6875 9.45197 66.1827 8.92409C65.3909 9.41568 64.6122 9.62023 63.6852 9.62023C61.1414 9.62023 58.9937 7.62749 58.9937 5.04749C58.9937 2.46749 61.059 0.392273 63.6621 0.392273C66.2651 0.392273 68.403 2.33552 68.403 4.92872C68.403 5.90199 68.2117 6.69381 67.6706 7.49882C67.9577 7.76276 68.4492 7.85844 68.8352 7.79905V9.60043C68.6439 9.61363 68.4624 9.62353 68.2711 9.62353V9.62023ZM63.6753 2.38501C62.3325 2.38501 61.4912 3.36818 61.2734 4.62849C61.7056 4.44703 62.052 4.32826 62.5337 4.32826C63.8666 4.32826 65.0312 5.21575 65.8329 6.19892C66.0606 5.80302 66.1332 5.34772 66.1332 4.89243C66.1332 3.46386 65.1137 2.38501 63.672 2.38501H63.6753ZM62.2962 5.98447C62.0091 5.98447 61.7815 6.03396 61.5044 6.12964C61.864 6.98084 62.7152 7.63079 63.6654 7.63079C64.025 7.63079 64.3846 7.5714 64.698 7.40314C64.0514 6.62123 63.3882 5.98777 62.2962 5.98777V5.98447Z" fill="#37343A"/>
<path d="M75.6777 8.65027C75.0047 9.33321 74.1403 9.61035 73.1934 9.61035C72.2465 9.61035 71.2865 9.34641 70.6365 8.66347C69.8315 7.81226 69.749 7.05344 69.749 5.9284V0.560532H72.0189V5.9251C72.0189 6.73011 72.1509 7.61761 73.1703 7.61761C74.1898 7.61761 74.2987 6.7664 74.2987 5.9251V0.560532H76.5685V5.9251C76.5685 6.98086 76.4498 7.88155 75.681 8.65027H75.6777Z" fill="#37343A"/>
<path d="M83.3915 9.44204L82.9593 8.15865H79.8745L79.406 9.44204H76.9712L80.5344 0.560532H82.3225L85.8494 9.44204H83.3882H83.3915ZM81.4482 3.31868H81.4119L80.5014 6.35397H82.3621L81.4515 3.31868H81.4482Z" fill="#37343A"/>
<path d="M91.0127 9.44209L88.9606 6.57505H88.9375V9.44209H86.7666V0.560532H89.5743C90.5112 0.560532 91.5439 0.583626 92.3093 1.19729C93.0417 1.78455 93.4014 2.69844 93.4014 3.62223C93.4014 4.99141 92.5963 6.18904 91.1942 6.41999L93.6059 9.44539H91.0127V9.44209ZM89.7656 2.55327H88.9375V5.02441H89.7425C90.5937 5.02441 91.2305 4.66479 91.2305 3.7509C91.2305 2.83701 90.5475 2.54997 89.7656 2.54997V2.55327Z" fill="#37343A"/>
<path d="M94.6021 9.44204V0.560532H99.5344V2.55326H96.7729V3.93234H99.4486V5.92507H96.7729V7.44931H99.5344V9.44204H94.6021Z" fill="#37343A"/>
<path d="M103.111 2.55326V4.06431H105.691V6.05704H103.111V9.44204H100.94V0.560532H105.79V2.55326H103.115H103.111Z" fill="#37343A"/>
<path d="M111.26 9.44209L109.208 6.57505H109.185V9.44209H107.014V0.560532H109.822C110.759 0.560532 111.791 0.583626 112.557 1.19729C113.289 1.78455 113.649 2.69844 113.649 3.62223C113.649 4.99141 112.844 6.18904 111.442 6.41999L113.853 9.44539H111.26V9.44209ZM110.01 2.55327H109.182V5.02441H109.987C110.838 5.02441 111.475 4.66479 111.475 3.7509C111.475 2.83701 110.792 2.54997 110.01 2.54997V2.55327Z" fill="#37343A"/>
<path d="M120.571 9.44204L120.138 8.15865H117.054L116.585 9.44204H114.15L117.714 0.560532H119.502L123.032 9.44204H120.571ZM118.627 3.31868H118.591L117.681 6.35397H119.541L118.631 3.31868H118.627Z" fill="#37343A"/>
<path d="M130.63 9.44209L130.702 2.79412L130.679 2.77102L128.782 9.44539H127.281L125.384 2.77102L125.361 2.79412L125.434 9.44209H123.345V0.560532H126.262L128.027 6.40679H128.05L129.789 0.560532H132.718V9.44209H130.63Z" fill="#37343A"/>
<path d="M133.725 9.44204V0.560532H138.657V2.55326H135.896V3.93234H138.571V5.92507H135.896V7.44931H138.657V9.44204H133.725Z" fill="#37343A"/>
<path d="M57.3637 17.7495C56.6907 18.2048 55.8625 18.2642 55.0707 18.2642H53.4871V21.8406H52.5996V12.9591H55.0707C55.8625 12.9591 56.6907 13.0185 57.3637 13.4738C58.0829 13.9653 58.4689 14.7473 58.4689 15.6084C58.4689 16.4695 58.0862 17.2514 57.3637 17.7463V17.7495ZM56.5455 13.9917C56.0407 13.7509 55.5722 13.7641 55.0212 13.7641H53.4838V17.4592H55.0212C55.5722 17.4592 56.0407 17.4724 56.5455 17.2316C57.2053 16.9181 57.5781 16.3441 57.5781 15.6117C57.5781 14.8792 57.2053 14.3052 56.5455 13.9917Z" fill="#37343A"/>
<path d="M59.7163 21.8406V12.9591H60.6038V21.8406H59.7163Z" fill="#37343A"/>
<path d="M66.6741 21.999C64.1304 21.999 62.0288 19.9832 62.0288 17.413C62.0288 14.8429 64.0809 12.8172 66.6609 12.8172C68.0037 12.8172 69.2772 13.3946 70.1647 14.4008C70.3924 14.6516 70.5969 14.9287 70.7289 15.2421H69.7325C69.0496 14.2227 67.8718 13.6222 66.6477 13.6222C64.6088 13.6222 62.9163 15.4104 62.9163 17.4262C62.9163 19.4421 64.655 21.194 66.6609 21.194C67.9443 21.194 69.0133 20.5209 69.7688 19.5147H70.7652C69.9503 21.0158 68.3897 21.999 66.6708 21.999H66.6741Z" fill="#37343A"/>
<path d="M74.2726 13.7641V21.8406H73.3851V13.7641H71.3462V12.9591H76.3017V13.7641H74.2726Z" fill="#37343A"/>
<path d="M82.9955 20.3427C82.4907 21.4215 81.4845 21.9989 80.3066 21.9989C79.1288 21.9989 78.1225 21.4215 77.6178 20.3427C77.367 19.8016 77.2812 19.0956 77.2812 18.4951V12.9623H78.1687V18.4951C78.1687 18.9768 78.2281 19.6729 78.469 20.1051C78.8649 20.8243 79.4884 21.1972 80.3066 21.1972C81.1248 21.1972 81.7484 20.8243 82.1443 20.1051C82.3851 19.6729 82.4445 18.9768 82.4445 18.4951V12.9623H83.332V18.4951C83.332 19.0956 83.2495 19.8049 82.9955 20.3427Z" fill="#37343A"/>
<path d="M88.469 18.5281L90.9764 21.8406H89.8613L86.8491 17.8188C87.4 17.8188 88.2183 17.8551 88.756 17.6868C89.6204 17.4229 90.2209 16.7268 90.2209 15.803C90.2209 15.1299 89.8481 14.4239 89.2476 14.0973C88.6967 13.797 88.1424 13.7607 87.5188 13.7607H85.9715V21.8373H85.084V12.9557H87.3407C88.0137 12.9557 88.9012 12.992 89.5248 13.2922C90.5211 13.7739 91.1084 14.7208 91.1084 15.8261C91.1084 17.3371 89.957 18.4292 88.469 18.5248V18.5281Z" fill="#37343A"/>
<path d="M92.3691 21.8406V12.9591H97.2289V13.7641H93.2566V16.9578H97.0969V17.7628H93.2566V21.0389H97.2289V21.8439H92.3691V21.8406Z" fill="#37343A"/>
</g>
<defs>
<clipPath id="clip0_274_521">
<rect width="139.257" height="44.18" fill="white"/>
</clipPath>
</defs>
</svg>
